<svg xmlns="http://www.w3.org/2000/svg" width="88" height="88" fill="none" viewBox="0 0 88 88"><rect width="88" height="88" fill="#fff"/><path fill="#EDF1F2" fill-rule="evenodd" d="M14 16.5C14 15.1193 15.0332 14 16.3077 14H71.6923C72.9668 14 74 15.1193 74 16.5C74 17.8807 72.9668 19 71.6923 19H16.3077C15.0332 19 14 17.8807 14 16.5Z" clip-rule="evenodd"/><path fill="#EDF1F2" fill-rule="evenodd" d="M14 30.25C14 28.8693 15.0332 27.75 16.3077 27.75H71.6923C72.9668 27.75 74 28.8693 74 30.25C74 31.6307 72.9668 32.75 71.6923 32.75H16.3077C15.0332 32.75 14 31.6307 14 30.25Z" clip-rule="evenodd"/><path fill="#EDF1F2" fill-rule="evenodd" d="M14 44C14 42.6193 15.0332 41.5 16.3077 41.5H71.6923C72.9668 41.5 74 42.6193 74 44C74 45.3807 72.9668 46.5 71.6923 46.5H16.3077C15.0332 46.5 14 45.3807 14 44Z" clip-rule="evenodd"/><path fill="#EDF1F2" fill-rule="evenodd" d="M14 57.75C14 56.3693 15.0332 55.25 16.3077 55.25H71.6923C72.9668 55.25 74 56.3693 74 57.75C74 59.1307 72.9668 60.25 71.6923 60.25H16.3077C15.0332 60.25 14 59.1307 14 57.75Z" clip-rule="evenodd"/><path fill="#EDF1F2" fill-rule="evenodd" d="M14 71.5C14 70.1193 15.0332 69 16.3077 69H71.6923C72.9668 69 74 70.1193 74 71.5C74 72.8807 72.9668 74 71.6923 74H16.3077C15.0332 74 14 72.8807 14 71.5Z" clip-rule="evenodd"/><path fill="#EDF1F2" fill-rule="evenodd" d="M69.3891 75.3031L54.6199 60.5339L59.8416 55.3122L74.6109 70.0814C76.0528 71.5233 76.0528 73.8612 74.6109 75.3031C73.1689 76.7451 70.8311 76.7451 69.3891 75.3031Z" clip-rule="evenodd"/><path fill="#EDF1F2" fill-rule="evenodd" d="M43.3846 61.6153C53.0708 61.6153 60.9231 53.7631 60.9231 44.0769C60.9231 34.3907 53.0708 26.5384 43.3846 26.5384C33.6984 26.5384 25.8462 34.3907 25.8462 44.0769C25.8462 53.7631 33.6984 61.6153 43.3846 61.6153ZM43.3846 66.2307C55.6199 66.2307 65.5385 56.3121 65.5385 44.0769C65.5385 31.8417 55.6199 21.923 43.3846 21.923C31.1494 21.923 21.2308 31.8417 21.2308 44.0769C21.2308 56.3121 31.1494 66.2307 43.3846 66.2307Z" clip-rule="evenodd"/><circle cx="43.385" cy="39.462" r="18.462" fill="#fff"/><mask id="mask0" width="38" height="39" x="24" y="21" mask-type="alpha" maskUnits="userSpaceOnUse"><rect width="36.923" height="7.385" x="24.923" y="21.923" fill="#F6F7F7"/><rect width="36.923" height="7.385" x="24.923" y="36.692" fill="#F6F7F7"/><rect width="36.923" height="7.385" x="24.923" y="52.462" fill="#F6F7F7"/></mask><g mask="url(#mask0)"><ellipse cx="43.385" cy="44.077" fill="#EDF1F2" rx="18.462" ry="18.462"/></g><path fill="#D3D9DB" fill-rule="evenodd" d="M69.3892 70.6878L54.62 55.9185L59.8417 50.6968L74.6109 65.466C76.0528 66.908 76.0528 69.2458 74.6109 70.6878C73.169 72.1297 70.8311 72.1297 69.3892 70.6878Z" clip-rule="evenodd"/><path fill="#D3D9DB" fill-rule="evenodd" d="M43.3846 57C53.0708 57 60.9231 49.1477 60.9231 39.4615C60.9231 29.7753 53.0708 21.9231 43.3846 21.9231C33.6984 21.9231 25.8462 29.7753 25.8462 39.4615C25.8462 49.1477 33.6984 57 43.3846 57ZM43.3846 61.6154C55.6199 61.6154 65.5385 51.6968 65.5385 39.4615C65.5385 27.2263 55.6199 17.3077 43.3846 17.3077C31.1494 17.3077 21.2308 27.2263 21.2308 39.4615C21.2308 51.6968 31.1494 61.6154 43.3846 61.6154Z" clip-rule="evenodd"/></svg>